<svg xmlns="http://www.w3.org/2000/svg" xmlns:xlink="http://www.w3.org/1999/xlink" width="500" zoomAndPan="magnify" viewBox="0 0 375 374.999991" height="500" preserveAspectRatio="xMidYMid meet" version="1.2"><defs><clipPath id="d6bb34661f"><path d="M 2.363281 106 L 147 106 L 147 267 L 2.363281 267 Z M 2.363281 106 "/></clipPath><clipPath id="49c4a729fe"><path d="M 132 112 L 372.863281 112 L 372.863281 265 L 132 265 Z M 132 112 "/></clipPath><clipPath id="e3c343fb95"><path d="M 125 105 L 372.863281 105 L 372.863281 271 L 125 271 Z M 125 105 "/></clipPath></defs><g id="7dd49b1882"><path style=" stroke:none;fill-rule:nonzero;fill:#005faf;fill-opacity:1;" d="M 111.710938 183.371094 C 147.777344 167.011719 153.109375 113.632812 101.808594 113.632812 L 42.402344 113.632812 L 20.445312 156.679688 L 30.777344 156.679688 L 4.515625 259.570312 L 73.398438 259.570312 C 123.648438 260 146.246094 200.828125 111.710938 183.371094 Z M 73.398438 222.117188 L 56.175781 222.117188 L 62.632812 198.871094 L 78.992188 198.871094 C 98.363281 202.746094 86.3125 222.976562 73.398438 222.117188 Z M 83.730469 172.609375 L 69.09375 172.609375 L 73.398438 152.375 L 89.753906 152.375 C 105.5625 156.25 91.910156 173.46875 83.730469 172.609375 Z M 83.730469 172.609375 "/><g clip-rule="nonzero" clip-path="url(#d6bb34661f)"><path style="fill:none;stroke-width:1;stroke-linecap:butt;stroke-linejoin:miter;stroke:#005faf;stroke-opacity:1;stroke-miterlimit:4;" d="M 255.168606 72.039398 C 284.386348 58.786513 288.705878 15.543752 247.146622 15.543752 L 199.021047 15.543752 L 181.233445 50.416436 L 189.603523 50.416436 L 168.328652 133.769113 L 224.131281 133.769113 C 264.839289 134.117207 283.145868 86.181506 255.168606 72.039398 Z M 224.131281 103.427979 L 210.179041 103.427979 L 215.409944 84.596096 L 228.662831 84.596096 C 244.355541 87.735271 234.593087 104.124167 224.131281 103.427979 Z M 232.501359 63.321227 L 220.644012 63.321227 L 224.131281 46.929167 L 237.381003 46.929167 C 250.187697 50.068342 239.127802 64.017415 232.501359 63.321227 Z M 232.501359 63.321227 " transform="matrix(1.234401,0,0,1.234401,-203.269405,94.445591)"/></g><g clip-rule="nonzero" clip-path="url(#49c4a729fe)"><path style=" stroke:none;fill-rule:nonzero;fill:#005faf;fill-opacity:1;" d="M 252.742188 168.613281 L 275.292969 128.796875 L 244.777344 112.878906 L 240.796875 117.792969 C 224.332031 109.078125 138.121094 121.109375 132.726562 206.152344 C 135.953125 277.492188 215.890625 264.660156 223.730469 260.132812 L 245.714844 214.683594 C 224.183594 228.867188 180.09375 235.675781 178.226562 193.070312 C 182.097656 157.9375 223.578125 144.816406 252.742188 168.613281 Z M 365.285156 113.632812 L 295.949219 113.632812 L 273.910156 155.394531 L 285.234375 155.394531 L 232.980469 259.570312 L 283.558594 259.570312 L 293.941406 234.441406 L 324.988281 234.441406 L 325.761719 259.570312 L 372.320312 259.570312 Z M 308.007812 200.613281 L 324.988281 160.082031 L 325.761719 200.613281 Z M 308.007812 200.613281 "/></g><g clip-rule="nonzero" clip-path="url(#e3c343fb95)"><path style="fill:none;stroke-width:1;stroke-linecap:butt;stroke-linejoin:miter;stroke:#005faf;stroke-opacity:1;stroke-miterlimit:4;" d="M 369.419378 60.083954 L 387.687983 27.828303 L 362.966981 14.933005 L 359.742365 18.913934 C 346.404037 11.853956 276.563727 21.600586 272.193566 90.494706 C 274.807435 148.287794 339.565573 137.892444 345.916705 134.224799 L 363.726459 97.405953 C 346.283786 108.896218 310.56618 114.411925 309.053553 79.896828 C 312.189564 51.435402 345.79329 40.805878 369.419378 60.083954 Z M 460.591519 15.543752 L 404.421809 15.543752 L 386.567753 49.375318 L 395.741611 49.375318 L 353.410219 133.769113 L 394.384045 133.769113 L 402.795261 113.411946 L 427.946633 113.411946 L 428.573202 133.769113 L 466.290767 133.769113 Z M 414.190592 86.007459 L 427.946633 53.172707 L 428.573202 86.007459 Z M 414.190592 86.007459 " transform="matrix(1.234401,0,0,1.234401,-203.269405,94.445591)"/></g></g></svg>