<svg width="25" height="25" viewBox="0 0 25 25" fill="none" xmlns="http://www.w3.org/2000/svg">
<path d="M22.17 7.45003C21.53 5.28003 19.72 3.47003 17.55 2.83003C15.9 2.35003 14.76 2.39003 13.97 2.98003C13.02 3.69003 12.91 4.97003 12.91 5.88003V8.37003C12.91 10.83 14.03 12.08 16.23 12.08H19.1C20 12.08 21.29 11.97 22 11.02C22.61 10.24 22.66 9.10003 22.17 7.45003Z" fill="#386BF6"/>
<path d="M19.41 13.86C19.15 13.56 18.77 13.39 18.38 13.39H14.8C13.04 13.39 11.61 11.96 11.61 10.2V6.62003C11.61 6.23003 11.44 5.85003 11.14 5.59003C10.85 5.33003 10.45 5.21003 10.07 5.26003C7.72001 5.56003 5.56001 6.85003 4.15001 8.79003C2.73001 10.74 2.21001 13.12 2.66001 15.5C3.31001 18.94 6.06001 21.69 9.51001 22.34C10.06 22.45 10.61 22.5 11.16 22.5C12.97 22.5 14.72 21.94 16.21 20.85C18.15 19.44 19.44 17.28 19.74 14.93C19.79 14.54 19.67 14.15 19.41 13.86Z" fill="#386BF6"/>
</svg>
