<svg xmlns="http://www.w3.org/2000/svg" xmlns:xlink="http://www.w3.org/1999/xlink" width="500" zoomAndPan="magnify" viewBox="0 0 375 374.999991" height="500" preserveAspectRatio="xMidYMid meet" version="1.2"><defs/><g id="d71b97d94a"><g style="fill:#ffffff;fill-opacity:1;"><g transform="translate(3.808598, 293.529956)"><path style="stroke:none" d="M 107.15625 -89.78125 L 55.03125 -89.78125 L 55.03125 0 L 25.609375 0 L 25.609375 -221.953125 L 99.078125 -221.953125 C 124.078125 -221.953125 143.3125 -216.257812 156.78125 -204.875 C 170.25 -193.488281 176.984375 -176.921875 176.984375 -155.171875 C 176.984375 -141.359375 173.242188 -129.316406 165.765625 -119.046875 C 158.296875 -108.785156 147.90625 -101.113281 134.59375 -96.03125 L 186.734375 -1.828125 L 186.734375 0 L 155.328125 0 Z M 55.03125 -113.71875 L 100 -113.71875 C 114.53125 -113.71875 126.085938 -117.476562 134.671875 -125 C 143.265625 -132.519531 147.5625 -142.578125 147.5625 -155.171875 C 147.5625 -168.898438 143.46875 -179.421875 135.28125 -186.734375 C 127.101562 -194.046875 115.289062 -197.753906 99.84375 -197.859375 L 55.03125 -197.859375 Z M 55.03125 -113.71875 "/></g><g transform="translate(196.034126, 293.529956)"><path style="stroke:none" d="M 160.671875 -80.640625 C 160.671875 -55.535156 154.925781 -35.3125 143.4375 -19.96875 C 131.957031 -4.625 116.410156 3.046875 96.796875 3.046875 C 76.773438 3.046875 61.023438 -3.300781 49.546875 -16 L 49.546875 63.40625 L 21.34375 63.40625 L 21.34375 -164.9375 L 47.109375 -164.9375 L 48.46875 -146.640625 C 59.957031 -160.867188 75.914062 -167.984375 96.34375 -167.984375 C 116.15625 -167.984375 131.828125 -160.515625 143.359375 -145.578125 C 154.898438 -130.640625 160.671875 -109.859375 160.671875 -83.234375 Z M 132.46875 -83.84375 C 132.46875 -102.4375 128.503906 -117.117188 120.578125 -127.890625 C 112.648438 -138.660156 101.773438 -144.046875 87.953125 -144.046875 C 70.878906 -144.046875 58.078125 -136.476562 49.546875 -121.34375 L 49.546875 -42.53125 C 57.972656 -27.488281 70.878906 -19.96875 88.265625 -19.96875 C 101.773438 -19.96875 112.519531 -25.328125 120.5 -36.046875 C 128.476562 -46.773438 132.46875 -62.707031 132.46875 -83.84375 Z M 132.46875 -83.84375 "/></g></g></g></svg>