<svg width="25" height="25" viewBox="0 0 25 25" fill="none" xmlns="http://www.w3.org/2000/svg">
<path d="M21.95 14.14V15.14C21.95 15.41 21.74 15.63 21.46 15.64H20C19.47 15.64 18.99 15.25 18.95 14.73C18.92 14.42 19.04 14.13 19.24 13.93C19.42 13.74 19.67 13.64 19.94 13.64H21.45C21.74 13.65 21.95 13.87 21.95 14.14Z" fill="#386BF6"/>
<path d="M18.49 13.19C17.99 13.68 17.75 14.41 17.95 15.17C18.21 16.1 19.12 16.69 20.08 16.69H20.95C21.5 16.69 21.95 17.14 21.95 17.69V17.88C21.95 19.95 20.26 21.64 18.19 21.64H6.71001C4.64001 21.64 2.95001 19.95 2.95001 17.88V11.15C2.95001 9.92001 3.54001 8.83001 4.45001 8.15001C5.08001 7.67001 5.86001 7.39001 6.71001 7.39001H18.19C20.26 7.39001 21.95 9.08001 21.95 11.15V11.59C21.95 12.14 21.5 12.59 20.95 12.59H19.93C19.37 12.59 18.86 12.81 18.49 13.19Z" fill="#386BF6"/>
<path d="M16.7 5.32C16.97 5.59 16.74 6.01 16.36 6.01L8.68 6C8.24 6 8.01 5.46 8.33 5.15L9.95 3.52C11.32 2.16 13.54 2.16 14.91 3.52L16.66 5.29C16.67 5.3 16.69 5.31 16.7 5.32Z" fill="#386BF6"/>
</svg>
